<?xml version="1.0" encoding="UTF-8"?>
<svg id="uuid-0561cbc1-fff6-46c7-8242-77b2c63de10f" data-name="Layer 2" xmlns="http://www.w3.org/2000/svg" viewBox="0 0 141 79">
  <path d="M130.89,40.61h-2.38v-4.58c.03-.58-.01-1.15-.13-1.72-.09-.24-.26-.45-.48-.58-.26-.15-.56-.23-.86-.22-.37,0-.74.09-1.07.28-.32.19-.56.48-.68.83-.17.53-.24,1.09-.22,1.65v4.32h-2.38v-11.89h2.4v4.37c.68-.82,1.7-1.29,2.76-1.29.51,0,1.02.09,1.49.29.39.16.74.42,1,.75.22.3.37.65.45,1.01.1.56.14,1.14.13,1.71l-.02,5.07ZM119.88,40.02c-.81.56-1.79.84-2.78.79-1.17.06-2.32-.36-3.17-1.17-.82-.9-1.24-2.09-1.17-3.3-.08-1.22.34-2.42,1.17-3.33.86-.81,2.02-1.24,3.2-1.17.92-.07,1.83.15,2.63.61.84.62,1.35,1.59,1.39,2.63h-2.38c-.04-.43-.22-.84-.51-1.17-.31-.24-.7-.36-1.1-.34-.54-.03-1.06.19-1.43.58-.41.57-.6,1.27-.53,1.97-.07.76.12,1.53.54,2.17.36.43.9.66,1.46.64.42.05.85-.05,1.21-.28.29-.25.35-.29.47-.89l2.4-.09c-.18.92-.67,1.74-1.4,2.32v.02ZM106.24,38.54c.36.38.86.59,1.38.58.36.03.71-.04,1.04-.19.27-.14.48-.38.58-.67h2.27c-.26.78-.77,1.45-1.45,1.9-.75.46-1.61.69-2.48.65-1.57,0-2.73-.49-3.5-1.47-.62-.86-.93-1.91-.89-2.97-.07-1.23.35-2.44,1.17-3.36.78-.8,1.86-1.25,2.97-1.21,1.2-.06,2.36.4,3.18,1.27.78.85,1.17,2.14,1.11,3.89h-5.96c-.01.57.2,1.12.58,1.54v.02ZM102.95,30.73h-3.7v9.87h-2.52v-9.89h-3.7v-2.01h9.91v2.03ZM91.23,27.85v14.67h40.69l7.08-14.67h-47.77ZM108.74,34.04c.37.41.56.95.54,1.51h-3.57c-.04-.54.14-1.07.5-1.48.33-.35.78-.55,1.26-.56.48,0,.94.19,1.27.53ZM76.93,35.63c0-.42-.02-.83-.07-1.24-.04-.47-.29-.89-.67-1.17-.43-.27-.93-.4-1.44-.38-.84,0-1.39.21-1.64.63-.3.78-.42,1.62-.36,2.45,0,.5.02,1.01.08,1.51.03.35.15.68.36.96.16.18.36.31.58.39.27.08.54.13.82.15.22-.05.45-.08.68-.1.26-.02.51-.07.76-.15.21-.08.39-.2.53-.37.25-.33.37-1.07.37-2.26v-.43ZM76.97,27.34h2.25v13.13h-2.25l.1-1.36h-.07c-.45.98-1.4,1.47-2.83,1.47-1.24,0-2.12-.25-2.62-.75-.32-.28-.55-.65-.68-1.05-.15-.41-.24-.84-.27-1.27-.03-.43-.05-.92-.05-1.48-.02-.8.02-1.6.11-2.4.09-.58.34-1.12.73-1.55.28-.3.64-.53,1.03-.66.54-.16,1.1-.24,1.67-.23,1.52,0,2.47.44,2.83,1.33h.07v-5.17ZM66.71,37.64c.05-.44-.19-.86-.58-1.05-.47-.18-.97-.27-1.47-.25-.58.03-1.01.06-1.24.09-.23.03-.44.14-.58.32-.21.26-.31.59-.29.93-.01.33.06.66.21.96.14.19.35.31.58.34.38.07.78.1,1.17.09.42.01.85-.02,1.27-.09.27-.05.51-.19.68-.41.17-.28.26-.6.26-.93ZM68.93,34.38v6.09h-2.22l.11-1.12-.07-.03c-.15.49-.53.87-1.01,1.03-.64.17-1.3.25-1.96.23-1.32,0-2.22-.25-2.69-.75-.51-.58-.76-1.35-.69-2.12,0-1.05.27-1.79.8-2.22.53-.43,1.41-.63,2.67-.63.39,0,.78.02,1.17.05.33.03.65.13.94.29.3.15.53.41.66.71h.09v-1.4c.03-.42-.04-.84-.19-1.23-.11-.19-.29-.34-.49-.42-.41-.13-.85-.19-1.28-.16-.5,0-.82.05-.97.06-.18.04-.34.12-.48.23-.24.27-.36.64-.32,1h-2.23c0-1.12.32-1.89.96-2.29.83-.41,1.76-.59,2.68-.53h.3c1.75,0,2.91.25,3.5.75.58.5.76,1.29.76,2.45ZM87.18,34.91c0-.91-.1-1.47-.3-1.68-.1-.1-.21-.17-.34-.22-.15-.05-.32-.09-.48-.11-.17,0-.34-.04-.5-.04h-.49c-.37.01-.75.05-1.11.11-.22.03-.43.14-.58.31-.15.16-.24.37-.26.58-.05.35-.07.7-.08,1.05h4.14ZM83.03,36.3c0,.17-.01.34-.04.51.02.39.07.78.15,1.17.05.27.21.5.44.65.21.1.43.17.65.22.32.03.65.05.97.04.36,0,.72,0,1.08-.05.2-.03.39-.11.55-.24.26-.28.38-.66.34-1.04h2.27c0,1.13-.29,1.92-.87,2.4-.38.28-.82.45-1.29.5-.68.09-1.37.13-2.06.12-.49,0-.98-.02-1.47-.07-.42-.04-.82-.13-1.21-.28-.35-.13-.66-.34-.91-.61-.37-.46-.6-1.01-.68-1.59-.1-.75-.15-1.51-.15-2.27,0-1.82.31-3.04.94-3.66.63-.62,1.75-.91,3.35-.91,1.7.06,2.8.31,3.29.75.34.29.58.68.71,1.11.14.44.24.9.28,1.36.03.44.06,1.07.08,1.9h-6.41ZM10.56,36.47c0,.25-.03.45-.05.58-.02.16-.06.32-.11.47-.05.15-.14.28-.24.39-.29.25-.65.4-1.03.46-.26,0-.77.04-1.53.04-.5.02-.99,0-1.49-.04-.34-.04-.65-.17-.92-.38-.44-.29-.66-1.1-.66-2.41v-3.44c0-1.11.18-1.84.55-2.19.23-.22.52-.36.83-.42.5-.1,1.02-.14,1.53-.12h.39c1.21,0,1.94.13,2.22.39.29.32.43.74.39,1.17v.82h2.51c0-.52-.02-.98-.05-1.38-.04-.42-.13-.84-.27-1.24-.14-.41-.38-.78-.71-1.07-.32-.28-.69-.48-1.1-.58-.45-.12-.91-.19-1.37-.22h-1.81c-.61,0-1.22.03-1.83.09-.55.06-1.09.19-1.61.39-.47.16-.89.45-1.22.82-.31.39-.54.84-.68,1.31-.15.51-.23,1.04-.25,1.57,0,.58-.05,1.43-.05,2.56s0,1.96.05,2.59c.03.57.12,1.14.29,1.69.14.47.4.89.74,1.23.72.71,1.99,1.07,3.82,1.07l1.05-.04c.61,0,1.11-.02,1.52-.07.93,0,1.85-.27,2.62-.79.65-.57.98-1.5.98-2.79v-1.17h-2.52c0,.27-.02.47-.02.72h.02ZM20.47,37.64c.05-.44-.19-.86-.58-1.05-.47-.18-.97-.27-1.47-.25-.58.03-1.01.06-1.24.09-.22.03-.41.14-.55.32-.2.26-.3.59-.28.93,0,.34.08.67.23.96.14.19.35.31.58.34.38.07.78.1,1.17.09.43.01.85-.02,1.27-.09.27-.05.51-.19.68-.41.15-.29.22-.61.2-.93ZM22.68,34.38v6.09h-2.22l.1-1.12-.07-.03c-.15.49-.53.87-1.01,1.03-.64.17-1.31.25-1.97.23-1.32,0-2.22-.25-2.69-.75-.51-.58-.76-1.35-.69-2.12,0-1.05.26-1.79.79-2.22.53-.43,1.42-.63,2.67-.63.39,0,.78.01,1.17.05.33.04.65.13.94.29.3.15.53.41.66.71h.09v-1.4c.03-.42-.04-.84-.2-1.23-.11-.19-.28-.34-.48-.42-.41-.13-.85-.19-1.28-.16-.5,0-.82.05-.97.06-.18.04-.35.12-.49.23-.24.27-.35.64-.32,1h-2.22c0-1.12.32-1.89.96-2.29.82-.4,1.73-.57,2.64-.51h.3c1.76,0,2.93.25,3.5.75.51.46.79,1.27.79,2.43ZM58.51,31.43c-.43-.19-.89-.27-1.35-.25-1.23,0-2.04.44-2.44,1.33h-.1l.07-1.23h-2.18v9.19h2.22v-5.62c-.05-.54.1-1.08.42-1.52.33-.34.79-.51,1.27-.47.27-.01.54.05.78.19.17.14.28.34.3.55.05.4.07.81.06,1.21h2.08v-.81c.03-.64-.08-1.27-.34-1.86-.18-.31-.45-.57-.78-.73ZM31.62,34.02v.79h-2.08c.01-.41-.01-.81-.06-1.21-.02-.22-.13-.42-.3-.55-.24-.14-.51-.21-.79-.19-.47-.04-.93.14-1.26.47-.32.45-.47.99-.42,1.54v5.63h-2.22v-9.21h2.18l-.07,1.24h.1c.4-.89,1.21-1.33,2.44-1.33.46-.02.93.07,1.35.25.32.16.59.41.78.72.25.59.37,1.22.34,1.86ZM47.21,29.48h-3.91v11.09h-2.55v-11.09h-3.87v-2.17h10.33v2.17ZM42.04,24.35c-5.01,0-9.07,4.08-9.06,9.1,0,5.02,4.07,9.08,9.08,9.08,5.01,0,9.07-4.07,9.07-9.09,0-2.41-.96-4.73-2.67-6.43-1.71-1.71-4.02-2.66-6.43-2.66ZM128.86,46.61c.53,0,.99.06,1.38.19.39.12.71.3.96.52.25.22.44.49.56.8.12.31.18.65.18,1.02s-.06.74-.19,1.06c-.13.32-.32.6-.58.83-.26.23-.58.41-.97.54-.39.13-.84.19-1.36.19h-1.11v2.8h-1.48v-7.95h2.58ZM128.86,50.61c.27,0,.51-.03.71-.1.2-.07.37-.16.5-.29.13-.13.23-.28.3-.46.07-.18.1-.38.1-.61s-.03-.41-.1-.58c-.07-.17-.16-.32-.3-.44-.13-.12-.3-.21-.5-.28-.2-.06-.44-.1-.71-.1h-1.11v2.85h1.11ZM121.31,53.37c.29,0,.54-.05.77-.14.23-.1.42-.23.57-.4.15-.17.27-.38.35-.63.08-.25.12-.52.12-.83v-4.76h1.48v4.76c0,.47-.08.91-.23,1.31-.15.4-.37.75-.65,1.04s-.63.52-1.04.68c-.41.16-.87.24-1.38.24s-.97-.08-1.38-.24c-.41-.16-.75-.39-1.04-.68-.28-.29-.5-.64-.65-1.04s-.23-.84-.23-1.31v-4.76h1.48v4.76c0,.3.04.58.12.83.08.25.2.46.36.63.16.17.35.31.57.4.23.1.48.14.77.14ZM115.29,50.59c0-.44-.06-.83-.18-1.17-.12-.35-.28-.64-.5-.88-.22-.24-.48-.43-.79-.56-.31-.13-.66-.19-1.05-.19s-.74.06-1.05.19c-.31.13-.57.31-.79.56-.22.24-.39.54-.5.88-.12.35-.18.74-.18,1.17s.06.83.18,1.17c.12.35.29.64.5.88.22.24.48.42.79.55.31.13.66.19,1.05.19s.74-.06,1.05-.19c.31-.13.57-.31.79-.55.22-.24.38-.53.5-.88.12-.35.18-.74.18-1.17ZM116.8,50.59c0,.58-.1,1.12-.29,1.62-.19.5-.46.93-.82,1.29-.35.36-.78.65-1.27.85-.5.2-1.05.31-1.65.31s-1.15-.1-1.64-.31c-.5-.2-.92-.49-1.27-.85-.35-.36-.63-.79-.82-1.29-.19-.5-.29-1.04-.29-1.62s.1-1.12.29-1.62c.19-.5.47-.93.82-1.29s.78-.65,1.27-.85c.5-.2,1.04-.31,1.64-.31.4,0,.78.05,1.14.14.36.09.68.23.98.4.3.17.56.38.8.62.24.24.44.52.6.82.17.3.29.63.38.98.09.35.13.72.13,1.11ZM108.46,54.57h-1.34c-.25,0-.44-.1-.55-.3l-1.67-2.55c-.06-.1-.13-.16-.21-.2-.08-.04-.19-.06-.33-.06h-.63v3.11h-1.48v-7.95h2.43c.54,0,1,.06,1.39.17.39.11.7.27.95.47.25.2.43.44.55.72.12.28.18.59.18.93,0,.27-.04.52-.12.76-.08.24-.19.45-.34.65-.15.19-.33.36-.55.51-.22.15-.47.26-.75.35.1.05.18.12.26.2.08.08.15.16.22.27l1.99,2.94ZM104.66,50.4c.28,0,.52-.03.73-.1.21-.07.38-.17.51-.29.13-.12.23-.27.3-.44.07-.17.1-.35.1-.56,0-.4-.13-.71-.4-.93-.27-.22-.67-.32-1.22-.32h-.95v2.64h.92ZM100.82,50.58v3.22c-.4.3-.83.51-1.29.65-.46.14-.95.21-1.47.21-.65,0-1.24-.1-1.76-.3-.53-.2-.98-.48-1.35-.84-.37-.36-.66-.79-.86-1.29-.2-.5-.3-1.04-.3-1.63s.1-1.15.29-1.64c.19-.5.47-.93.83-1.29.36-.36.79-.64,1.3-.84.51-.2,1.08-.3,1.72-.3.32,0,.62.03.9.08.28.05.54.12.78.21.24.09.46.2.66.33.2.13.38.27.54.42l-.42.67c-.07.11-.15.17-.26.2-.11.02-.22,0-.35-.08-.12-.07-.24-.14-.36-.21-.12-.07-.26-.13-.4-.18-.15-.05-.32-.09-.5-.13-.19-.03-.4-.05-.64-.05-.39,0-.75.07-1.06.2-.32.13-.59.32-.81.57-.22.25-.4.54-.52.89-.12.34-.18.73-.18,1.15,0,.45.07.86.2,1.22.13.36.31.66.55.91.24.25.52.44.86.57.33.13.71.2,1.12.2.29,0,.56-.03.79-.09.23-.06.46-.15.68-.25v-1.44h-1c-.1,0-.17-.03-.22-.08-.05-.05-.08-.12-.08-.2v-.84h2.64Z" fill="#fff" fill-rule="evenodd" stroke-width="0"/>
</svg>